<svg width="400" height="400" viewBox="0 0 400 400" fill="none" xmlns="http://www.w3.org/2000/svg">
<rect width="400" height="400" rx="50" fill="black"/>
<path d="M117.088 180.08C117.088 183.92 118.24 187.632 120.544 191.216C122.848 194.8 125.92 197.317 129.76 198.768C132.405 191.088 133.728 184.517 133.728 179.056C133.728 170.949 131.125 166.896 125.92 166.896C123.701 166.896 121.867 167.877 120.416 169.84C118.197 172.827 117.088 176.24 117.088 180.08ZM114.144 207.984C115.68 207.984 117.045 208.283 118.24 208.88C119.52 209.477 120.416 210.117 120.928 210.8L121.568 211.696C121.568 212.72 121.141 213.232 120.288 213.232C119.776 213.232 119.392 212.891 119.136 212.208C117.344 210.757 115.296 210.032 112.992 210.032C108.981 210.032 105.483 211.653 102.496 214.896C99.5093 218.139 98.016 221.253 98.016 224.24C98.016 227.227 99.4667 228.72 102.368 228.72C107.488 228.72 112.395 226.032 117.088 220.656C121.867 215.28 125.792 208.667 128.864 200.816C124.853 199.621 121.44 197.232 118.624 193.648C115.808 190.064 114.4 186.309 114.4 182.384C114.4 178.459 115.509 174.491 117.728 170.48C120.032 166.469 123.104 164.464 126.944 164.464C129.76 164.464 132.107 165.872 133.984 168.688C135.947 171.504 136.928 175.344 136.928 180.208C136.928 185.072 135.477 191.515 132.576 199.536C133.259 199.707 134.283 199.792 135.648 199.792C141.365 199.792 146.443 197.445 150.88 192.752C151.989 191.643 152.715 191.088 153.056 191.088C153.483 191.088 153.696 191.387 153.696 191.984C153.696 192.496 153.355 193.093 152.672 193.776C147.637 198.981 141.365 201.584 133.856 201.584C132.917 201.584 132.235 201.541 131.808 201.456C128.395 209.819 123.915 216.859 118.368 222.576C112.907 228.208 106.933 231.024 100.448 231.024C96.6933 231.024 94.816 229.061 94.816 225.136C94.816 221.211 96.608 217.371 100.192 213.616C103.861 209.861 108.512 207.984 114.144 207.984ZM133.621 228.464C136.949 228.464 140.661 226.757 144.757 223.344C148.853 219.845 151.242 216.859 151.925 214.384C151.925 213.36 151.285 212.507 150.005 211.824C148.725 211.056 147.274 210.672 145.653 210.672C141.728 210.672 138.101 212.379 134.773 215.792C131.53 219.12 129.909 222.064 129.909 224.624C129.909 227.184 131.146 228.464 133.621 228.464ZM146.805 208.624C149.792 208.624 152.266 209.691 154.229 211.824C154.314 211.824 154.997 211.184 156.277 209.904C156.874 208.965 157.557 208.496 158.325 208.496C159.093 208.496 159.477 208.88 159.477 209.648L158.965 210.8C158.709 211.227 157.002 213.317 153.845 217.072C150.773 220.827 148.981 223.045 148.469 223.728C148.042 224.411 147.829 225.435 147.829 226.8C147.829 227.739 148.426 228.208 149.621 228.208C152.096 228.208 155.594 226.16 160.117 222.064C160.373 221.723 160.629 221.552 160.885 221.552C161.226 221.552 161.397 221.765 161.397 222.192C161.397 223.216 159.648 224.837 156.149 227.056C152.736 229.275 149.664 230.384 146.933 230.384C145.056 230.384 144.117 229.403 144.117 227.44C144.117 226.757 143.989 226.416 143.733 226.416C143.562 226.416 143.434 226.459 143.349 226.544C139.082 229.36 135.029 230.768 131.189 230.768C127.434 230.768 125.557 229.061 125.557 225.648C125.557 222.064 127.69 218.352 131.957 214.512C136.224 210.587 141.173 208.624 146.805 208.624ZM185.425 188.272C186.534 187.077 187.516 186.48 188.369 186.48C189.308 186.48 189.777 186.736 189.777 187.248V187.632C189.777 188.144 189.052 189.04 187.601 190.32C186.236 191.515 182.865 195.312 177.489 201.712H188.113C189.137 201.712 189.649 201.968 189.649 202.48C189.649 203.163 188.625 203.504 186.577 203.504H175.953C166.225 215.109 161.361 222.192 161.361 224.752C161.361 226.629 162.385 227.568 164.433 227.568C165.116 227.568 166.225 227.355 167.761 226.928C170.492 225.819 172.497 224.667 173.777 223.472C175.057 222.192 175.825 221.552 176.081 221.552C176.422 221.552 176.593 221.808 176.593 222.32C176.593 222.832 175.825 223.771 174.289 225.136C172.753 226.416 170.833 227.568 168.529 228.592C166.225 229.616 164.134 230.128 162.257 230.128C159.441 230.128 158.033 228.677 158.033 225.776C158.033 222.875 162.94 215.408 172.753 203.376C169.084 203.376 166.566 203.376 165.201 203.376C163.921 203.291 163.281 203.035 163.281 202.608C163.281 202.096 164.006 201.755 165.457 201.584H174.289C180.604 193.904 184.316 189.467 185.425 188.272ZM174.173 225.008C174.173 222.448 175.197 220.357 177.245 218.736C179.293 217.115 181.512 216.304 183.901 216.304C186.376 216.304 187.613 217.371 187.613 219.504C187.613 220.443 187.272 221.381 186.589 222.32C185.992 223.259 185.309 223.728 184.541 223.728C183.858 223.728 183.517 223.472 183.517 222.96C183.517 222.363 183.773 221.808 184.285 221.296C184.882 220.784 185.181 220.272 185.181 219.76C185.181 218.309 184.498 217.584 183.133 217.584C181.768 217.584 180.445 218.224 179.165 219.504C177.97 220.699 177.373 222.149 177.373 223.856C177.373 225.477 177.8 226.843 178.653 227.952C179.506 229.061 180.829 229.616 182.621 229.616C184.498 229.616 186.077 228.848 187.357 227.312C188.722 225.691 189.746 223.771 190.429 221.552C191.112 219.248 191.837 216.944 192.605 214.64C193.458 212.336 194.696 210.416 196.317 208.88C198.024 207.259 199.858 206.448 201.821 206.448C203.784 206.448 205.32 206.789 206.429 207.472C207.538 208.069 208.093 208.88 208.093 209.904C208.093 210.928 207.666 211.909 206.813 212.848C206.045 213.787 205.192 214.256 204.253 214.256C203.314 214.256 202.802 214.043 202.717 213.616C202.717 212.933 203.186 212.336 204.125 211.824C204.637 211.653 204.893 211.056 204.893 210.032C204.893 208.667 203.954 207.984 202.077 207.984C200.2 207.984 198.621 209.221 197.341 211.696C196.061 214.085 195.08 216.731 194.397 219.632C193.8 222.448 192.434 225.093 190.301 227.568C188.168 229.957 185.309 231.152 181.725 231.152C179.506 231.152 177.757 230.64 176.477 229.616C175.197 228.592 174.514 227.568 174.429 226.544L174.173 225.008ZM185.417 259.44C187.038 259.355 188.404 258.587 189.513 257.136C190.622 255.771 191.177 254.277 191.177 252.656V252.4C187.081 254.277 185.033 256.453 185.033 258.928C185.033 259.269 185.161 259.44 185.417 259.44ZM156.873 264.816C164.126 264.816 173.982 257.947 186.441 244.208C184.308 243.269 181.406 242.8 177.737 242.8C171.678 242.8 166.046 245.019 160.841 249.456C155.55 253.979 152.905 257.989 152.905 261.488C152.905 263.707 154.228 264.816 156.873 264.816ZM268.745 172.528C268.745 173.893 267.849 175.003 266.057 175.856C263.838 175.856 262.729 175.387 262.729 174.448C262.729 173.936 263.07 173.381 263.753 172.784C264.521 172.101 264.905 171.547 264.905 171.12C264.905 170.693 263.753 170.48 261.449 170.48C259.23 170.48 256.457 171.461 253.129 173.424C249.801 175.387 246.089 178.459 241.993 182.64C235.166 189.467 227.316 198.384 218.441 209.392H226.761C227.785 209.392 228.297 209.648 228.297 210.16C228.297 210.843 227.529 211.269 225.993 211.44H216.777C203.124 228.336 194.036 239.216 189.513 244.08C191.476 245.616 192.628 247.664 192.969 250.224C196.126 248.944 198.772 248.304 200.905 248.304C203.124 248.304 205.172 248.731 207.049 249.584C208.926 250.437 209.865 251.504 209.865 252.784C209.865 253.296 209.737 253.595 209.481 253.68H209.225C209.054 253.68 208.798 253.467 208.457 253.04C208.201 252.699 207.817 252.272 207.305 251.76C206.11 250.565 204.105 249.968 201.289 249.968C198.473 249.968 195.7 250.523 192.969 251.632C192.884 254.533 191.988 257.008 190.281 259.056C188.574 261.104 186.825 262.128 185.033 262.128C183.156 262.128 182.217 261.36 182.217 259.824C182.217 258.373 183.07 256.837 184.777 255.216C186.484 253.595 188.617 252.187 191.177 250.992C190.836 248.517 189.897 246.64 188.361 245.36C175.049 259.44 164.254 266.48 155.977 266.48C151.369 266.48 149.065 264.901 149.065 261.744C149.065 257.648 152.222 253.211 158.537 248.432C164.766 243.653 171.593 241.264 179.017 241.264C182.516 241.264 185.374 241.819 187.593 242.928C191.433 238.661 200.052 228.165 213.449 211.44H205.897C205.129 211.44 204.745 211.184 204.745 210.672C204.745 209.904 205.47 209.52 206.921 209.52H214.985C225.737 196.208 234.91 186.053 242.505 179.056C250.1 171.973 256.969 168.432 263.113 168.432C266.868 168.432 268.745 169.797 268.745 172.528ZM238.894 199.408C238.894 198.64 239.278 197.829 240.046 196.976C240.814 196.037 241.497 195.568 242.094 195.568C242.777 195.568 243.289 195.781 243.63 196.208C244.057 196.549 244.27 197.104 244.27 197.872C244.27 198.64 243.801 199.365 242.862 200.048C242.009 200.731 241.283 201.072 240.686 201.072C239.491 201.072 238.894 200.517 238.894 199.408ZM220.846 226.8C220.846 225.435 221.955 223.557 224.174 221.168L233.774 210.288C234.286 209.776 234.542 209.349 234.542 209.008C234.542 208.667 234.371 208.368 234.03 208.112C233.774 207.856 233.39 207.728 232.878 207.728C232.451 207.728 232.067 207.899 231.726 208.24C231.385 208.496 230.702 209.221 229.678 210.416C228.739 211.611 227.417 213.232 225.71 215.28C224.003 217.243 222.851 218.565 222.254 219.248C221.742 219.931 221.145 220.699 220.462 221.552C219.779 222.32 219.225 222.96 218.798 223.472C217.689 225.008 217.134 226.331 217.134 227.44C217.134 229.403 218.073 230.384 219.95 230.384C222.681 230.384 225.753 229.275 229.166 227.056C232.665 224.837 234.414 223.216 234.414 222.192C234.414 221.765 234.243 221.552 233.902 221.552C233.646 221.552 233.39 221.723 233.134 222.064C228.611 226.16 225.113 228.208 222.638 228.208C221.443 228.208 220.846 227.739 220.846 226.8ZM250.867 197.232C255.646 191.344 260.51 185.456 265.459 179.568C270.408 173.595 273.011 170.437 273.267 170.096C273.608 169.755 274.206 169.584 275.059 169.584C275.998 169.584 276.467 169.84 276.467 170.352V170.736C276.467 171.248 276.254 171.632 275.827 171.888C272.072 175.472 264.264 184.603 252.403 199.28C240.542 213.957 234.611 222.363 234.611 224.496C234.611 226.544 235.635 227.568 237.683 227.568C238.366 227.568 239.475 227.355 241.011 226.928C243.742 225.819 245.747 224.667 247.027 223.472C248.307 222.192 249.075 221.552 249.331 221.552C249.672 221.552 249.843 221.808 249.843 222.32C249.843 222.832 249.075 223.771 247.539 225.136C246.003 226.416 244.083 227.568 241.779 228.592C239.475 229.616 237.384 230.128 235.507 230.128C232.691 230.128 231.283 228.805 231.283 226.16C231.283 224.539 233.374 220.784 237.555 214.896C241.736 208.923 246.174 203.035 250.867 197.232ZM266.894 199.408C266.894 198.64 267.278 197.829 268.046 196.976C268.814 196.037 269.497 195.568 270.094 195.568C270.777 195.568 271.289 195.781 271.63 196.208C272.057 196.549 272.27 197.104 272.27 197.872C272.27 198.64 271.801 199.365 270.862 200.048C270.009 200.731 269.283 201.072 268.686 201.072C267.491 201.072 266.894 200.517 266.894 199.408ZM248.846 226.8C248.846 225.435 249.955 223.557 252.174 221.168L261.774 210.288C262.286 209.776 262.542 209.349 262.542 209.008C262.542 208.667 262.371 208.368 262.03 208.112C261.774 207.856 261.39 207.728 260.878 207.728C260.451 207.728 260.067 207.899 259.726 208.24C259.385 208.496 258.702 209.221 257.678 210.416C256.739 211.611 255.417 213.232 253.71 215.28C252.003 217.243 250.851 218.565 250.254 219.248C249.742 219.931 249.145 220.699 248.462 221.552C247.779 222.32 247.225 222.96 246.798 223.472C245.689 225.008 245.134 226.331 245.134 227.44C245.134 229.403 246.073 230.384 247.95 230.384C250.681 230.384 253.753 229.275 257.166 227.056C260.665 224.837 262.414 223.216 262.414 222.192C262.414 221.765 262.243 221.552 261.902 221.552C261.646 221.552 261.39 221.723 261.134 222.064C256.611 226.16 253.113 228.208 250.638 228.208C249.443 228.208 248.846 227.739 248.846 226.8ZM250.073 252.528C247.684 253.467 245.764 254.661 244.313 256.112C242.777 257.648 242.009 258.757 242.009 259.44C242.009 260.208 242.265 260.592 242.777 260.592C244.569 260.592 246.19 259.781 247.641 258.16C249.006 256.539 249.817 254.661 250.073 252.528ZM238.297 241.904C231.3 241.904 224.558 243.909 218.073 247.92C211.588 252.016 208.345 256.453 208.345 261.232C208.345 263.963 209.881 265.328 212.953 265.328C219.182 265.328 229.252 257.691 243.161 242.416C241.881 242.075 240.26 241.904 238.297 241.904ZM285.529 211.184C285.529 213.403 283.694 216.347 280.025 220.016C276.441 223.685 274.649 225.989 274.649 226.928C274.649 227.781 275.246 228.208 276.441 228.208C278.916 228.208 282.414 226.16 286.937 222.064C287.193 221.723 287.449 221.552 287.705 221.552C288.046 221.552 288.217 221.765 288.217 222.192C288.217 223.216 286.468 224.837 282.969 227.056C279.556 229.275 276.484 230.384 273.753 230.384C271.876 230.384 270.937 229.403 270.937 227.44C270.937 225.904 272.814 223.301 276.569 219.632C280.409 215.963 282.329 213.488 282.329 212.208C282.329 210.928 281.561 210.288 280.025 210.288C277.38 210.203 274.777 210.885 272.217 212.336L271.065 212.976C270.382 213.744 267.182 217.627 261.465 224.624C255.833 231.621 250.969 237.424 246.873 242.032C250.457 243.739 252.249 246.512 252.249 250.352V250.608C254.638 250.011 256.985 249.712 259.289 249.712C261.593 249.712 263.598 250.181 265.305 251.12C267.012 252.144 267.865 253.381 267.865 254.832C267.865 255.088 267.737 255.429 267.481 255.856C267.31 256.283 266.969 256.496 266.457 256.496C265.945 256.496 265.518 256.155 265.177 255.472C264.921 254.789 264.537 254.149 264.025 253.552C262.66 251.931 260.782 251.12 258.393 251.12C256.004 251.12 253.956 251.376 252.249 251.888C251.822 254.789 250.5 257.307 248.281 259.44C245.977 261.659 243.289 262.768 240.217 262.768C238.937 262.768 238.297 262.256 238.297 261.232C238.297 259.867 239.449 258.117 241.753 255.984C243.972 253.936 246.745 252.315 250.073 251.12C250.073 247.536 248.58 244.976 245.593 243.44C231.086 259.227 219.993 267.12 212.313 267.12C207.364 267.12 204.889 265.499 204.889 262.256C204.889 256.795 208.729 251.76 216.409 247.152C224.004 242.629 231.257 240.368 238.169 240.368C240.558 240.368 242.649 240.624 244.441 241.136C251.524 233.2 259.545 223.515 268.505 212.08C277.55 200.645 282.542 194.331 283.481 193.136C284.42 191.941 285.273 191.344 286.041 191.344C286.809 191.344 287.193 191.728 287.193 192.496C287.193 192.923 286.98 193.435 286.553 194.032C277.934 204.357 273.625 209.648 273.625 209.904C273.966 209.563 275.118 209.136 277.081 208.624C279.044 208.112 280.537 207.856 281.561 207.856C284.206 207.856 285.529 208.965 285.529 211.184ZM290.031 223.344V224.24C299.588 220.571 304.367 216.901 304.367 213.232C304.367 211.355 303.172 210.416 300.783 210.416C298.479 210.416 296.09 211.867 293.615 214.768C291.226 217.669 290.031 220.528 290.031 223.344ZM307.567 212.208C307.567 217.328 301.85 221.765 290.415 225.52C291.098 227.483 292.975 228.464 296.047 228.464C301.252 228.464 306.202 226.331 310.895 222.064C311.151 221.723 311.407 221.552 311.663 221.552C312.004 221.552 312.175 221.851 312.175 222.448C312.175 222.96 311.407 223.856 309.871 225.136C308.335 226.416 306.159 227.653 303.343 228.848C300.527 230.043 297.754 230.64 295.023 230.64C289.22 230.64 286.319 228.507 286.319 224.24C286.319 220.741 288.068 217.2 291.567 213.616C295.151 210.032 298.991 208.24 303.087 208.24C306.074 208.24 307.567 209.563 307.567 212.208Z" fill="white"/>
</svg>
