<svg width="201" height="129" viewBox="0 0 201 129" fill="none" xmlns="http://www.w3.org/2000/svg">
<path d="M11.832 96.84C10.2107 96.84 8.54667 96.4133 6.84 95.56C5.21867 94.792 3.85333 93.5547 2.744 91.848C1.54933 90.1413 0.952 87.9653 0.952 85.32C0.952 82.504 1.63467 79.3467 3 75.848C4.36533 72.3493 6.2 68.8507 8.504 65.352C10.8933 61.8533 13.624 58.6533 16.696 55.752C19.8533 52.8507 23.1813 50.504 26.68 48.712C30.1787 46.92 33.72 46.024 37.304 46.024C39.2667 46.024 40.8027 46.3653 41.912 47.048C43.0213 47.6453 43.576 48.6693 43.576 50.12C43.576 50.5467 43.4907 51.0587 43.32 51.656C43.1493 52.168 42.7227 52.6373 42.04 53.064C41.6987 52.552 41.1013 52.2107 40.248 52.04C39.3947 51.784 38.4987 51.656 37.56 51.656C34.744 51.656 32.056 52.4667 29.496 54.088C26.936 55.624 24.5893 57.6293 22.456 60.104C20.3227 62.5787 18.4453 65.2667 16.824 68.168C15.288 71.0693 14.0933 73.8853 13.24 76.616C12.3867 79.2613 11.96 81.5653 11.96 83.528C11.96 85.1493 12.3013 86.472 12.984 87.496C13.6667 88.4347 14.6907 88.904 16.056 88.904C18.36 88.904 21.0907 87.5813 24.248 84.936C27.4907 82.2053 30.776 78.3227 34.104 73.288C37.5173 68.168 40.5893 62.0667 43.32 54.984C45.1973 50.12 47.16 45.1707 49.208 40.136C51.256 35.016 53.304 30.1093 55.352 25.416C57.4 20.7227 59.4053 16.5413 61.368 12.872C63.416 9.20266 65.336 6.30133 67.128 4.168C69.0053 1.94933 70.712 0.839996 72.248 0.839996C73.1867 0.839996 73.9973 1.224 74.68 1.992C75.448 2.67466 75.832 3.57066 75.832 4.67999C75.832 6.13066 75.1067 8.47733 73.656 11.72C72.2907 14.8773 70.4987 18.6747 68.28 23.112C66.1467 27.5493 63.8 32.3707 61.24 37.576C58.7653 42.696 56.4187 47.9867 54.2 53.448C52.0667 58.824 50.2747 64.1573 48.824 69.448C47.4587 74.6533 46.776 79.56 46.776 84.168C46.776 86.216 46.9467 87.624 47.288 88.392C47.7147 89.0747 48.3973 89.416 49.336 89.416C51.2133 89.416 53.304 88.6907 55.608 87.24C57.912 85.7893 60.2587 83.656 62.648 80.84C65.0373 77.9387 67.2133 74.4827 69.176 70.472L71.608 72.52C69.7307 77.2133 67.3413 81.352 64.44 84.936C61.5387 88.52 58.424 91.2933 55.096 93.256C51.768 95.304 48.4827 96.328 45.24 96.328C41.7413 96.328 39.3093 95.2187 37.944 93C36.5787 90.7813 35.896 88.1787 35.896 85.192C35.896 83.8267 35.9813 82.4613 36.152 81.096C36.408 79.6453 36.664 78.2373 36.92 76.872C34.2747 80.712 31.4587 84.168 28.472 87.24C25.5707 90.2267 22.712 92.5733 19.896 94.28C17.08 95.9867 14.392 96.84 11.832 96.84ZM77.523 98.888C73.7683 98.888 70.739 97.7787 68.435 95.56C66.131 93.3413 64.979 89.9707 64.979 85.448C64.979 81.9493 65.619 77.5973 66.899 72.392C68.2643 67.1867 69.971 61.8107 72.019 56.264C71.4217 56.0933 70.6963 55.9653 69.843 55.88C69.075 55.7093 68.307 55.4533 67.539 55.112V51.144C68.9043 51.3147 70.0137 51.4427 70.867 51.528C71.8057 51.6133 72.7443 51.6987 73.683 51.784C75.475 47.2613 77.395 42.9093 79.443 38.728C81.5763 34.4613 83.667 30.664 85.715 27.336C87.8483 24.008 89.8537 21.4053 91.731 19.528C93.6083 17.5653 95.2723 16.584 96.723 16.584C97.5763 16.584 98.387 16.9253 99.155 17.608C99.923 18.2053 100.307 19.1013 100.307 20.296C100.307 22.0027 99.411 24.4347 97.619 27.592C95.9123 30.7493 93.779 34.4613 91.219 38.728C88.659 42.9093 86.1843 47.3893 83.795 52.168C84.4777 52.168 85.1603 52.168 85.843 52.168C86.5257 52.168 87.1657 52.168 87.763 52.168C91.5177 52.168 94.8883 52.1253 97.875 52.04C100.947 51.8693 104.062 51.6133 107.219 51.272V55.496C102.526 55.9227 98.2163 56.264 94.291 56.52C90.3657 56.776 86.611 56.9467 83.027 57.032C82.771 57.032 82.515 57.032 82.259 57.032C82.003 57.032 81.747 57.032 81.491 57.032C79.699 61.2133 78.1203 65.5227 76.755 69.96C75.475 74.312 74.835 78.5787 74.835 82.76C74.835 86.2587 75.3897 88.7333 76.499 90.184C77.6083 91.6347 79.3577 92.36 81.747 92.36C86.0137 92.36 90.3657 90.44 94.803 86.6C99.3257 82.6747 103.251 77.384 106.579 70.728L108.371 72.008C106.152 77.0427 103.379 81.608 100.051 85.704C96.8083 89.8 93.267 93 89.427 95.304C85.587 97.6933 81.619 98.888 77.523 98.888ZM117.726 99.528C113.459 99.528 110.003 98.632 107.358 96.84C104.798 95.1333 102.963 92.9573 101.854 90.312C100.745 87.5813 100.19 84.808 100.19 81.992C100.19 79.5173 100.531 77.5973 101.214 76.232C101.897 74.8667 102.75 73.8853 103.774 73.288C104.798 72.6053 105.737 72.0933 106.59 71.752C107.529 71.4107 108.211 71.0267 108.638 70.6C110.771 68.3813 112.947 65.8213 115.166 62.92C117.47 59.9333 119.433 56.648 121.054 53.064V51.784C121.054 48.3707 121.609 45.9813 122.718 44.616C123.913 43.1653 125.278 42.44 126.814 42.44C127.838 42.44 128.563 42.696 128.99 43.208C129.502 43.72 129.801 44.3173 129.886 45C129.886 45.512 129.758 46.1093 129.502 46.792C129.331 47.4747 129.246 48.4133 129.246 49.608C129.246 52.168 129.843 55.112 131.038 58.44C132.318 61.6827 133.555 65.1387 134.75 68.808C136.03 72.4773 136.67 76.232 136.67 80.072C136.67 81.096 136.627 82.0347 136.542 82.888C136.457 83.7413 136.329 84.552 136.158 85.32C138.803 84.6373 141.406 83.1867 143.966 80.968C146.526 78.664 148.958 75.2933 151.262 70.856L152.798 72.008C151.177 76.872 148.83 80.7973 145.758 83.784C142.686 86.6853 139.102 88.4773 135.006 89.16C133.641 92.6587 131.379 95.2613 128.222 96.968C125.15 98.6747 121.651 99.528 117.726 99.528ZM116.83 93.896C118.537 93.896 120.115 93.4693 121.566 92.616C123.017 91.7627 124.169 90.5253 125.022 88.904C121.523 88.136 118.366 86.7707 115.55 84.808C112.734 82.8453 110.558 80.84 109.022 78.792C107.827 79.048 107.23 80.2 107.23 82.248C107.23 85.064 108.041 87.7093 109.662 90.184C111.283 92.6587 113.673 93.896 116.83 93.896ZM126.046 85.064C126.217 84.4667 126.302 83.784 126.302 83.016C126.387 82.1627 126.43 81.5227 126.43 81.096C126.345 77.256 125.833 73.4587 124.894 69.704C123.955 65.9493 123.017 62.1093 122.078 58.184C120.542 60.8293 118.75 63.688 116.702 66.76C114.654 69.832 112.734 72.3067 110.942 74.184C112.307 76.488 114.313 78.664 116.958 80.712C119.603 82.76 122.633 84.2107 126.046 85.064ZM147.497 128.84C146.558 128.84 145.449 128.541 144.169 127.944C142.804 127.347 141.652 126.152 140.713 124.36C139.689 122.653 139.177 120.051 139.177 116.552C139.177 112.883 139.817 108.061 141.097 102.088C142.292 96.2 143.998 89.672 146.217 82.504C148.35 75.2507 150.868 67.8267 153.769 60.232C156.756 52.6373 159.913 45.3413 163.241 38.344C166.654 31.2613 170.153 24.904 173.737 19.272C177.406 13.64 181.033 9.16 184.617 5.83199C188.201 2.504 191.657 0.839996 194.985 0.839996C197.204 0.839996 198.654 1.52266 199.337 2.88799C200.02 4.168 200.361 5.66133 200.361 7.368C200.361 11.0373 199.337 15.048 197.289 19.4C195.326 23.752 192.681 28.1467 189.353 32.584C186.025 36.936 182.27 41.0747 178.089 45C173.993 48.9253 169.769 52.296 165.417 55.112C165.076 55.9653 164.734 56.8187 164.393 57.672C164.052 58.5253 163.71 59.3787 163.369 60.232C164.308 60.5733 165.033 61.1707 165.545 62.024C166.142 62.8773 166.484 63.7733 166.569 64.712C167.252 68.3813 167.934 71.6667 168.617 74.568C169.3 77.384 170.324 79.6027 171.689 81.224C173.14 82.8453 175.188 83.656 177.833 83.656C180.82 83.656 183.465 82.5467 185.769 80.328C188.073 78.1093 190.42 74.9947 192.809 70.984L195.625 73.032C192.894 78.4933 189.822 82.504 186.409 85.064C182.996 87.5387 179.924 88.776 177.193 88.776C175.742 88.776 174.206 88.4773 172.585 87.88C171.049 87.2827 169.556 86.4293 168.105 85.32C168.02 90.6107 167.38 95.816 166.185 100.936C165.076 106.141 163.54 110.835 161.577 115.016C159.614 119.197 157.396 122.525 154.921 125C152.532 127.56 150.057 128.84 147.497 128.84ZM151.081 120.904C152.02 120.904 153.001 120.093 154.025 118.472C155.134 116.851 156.201 114.717 157.225 112.072C158.249 109.427 159.188 106.483 160.041 103.24C160.894 100.083 161.577 96.9253 162.089 93.768C162.601 90.696 162.857 87.88 162.857 85.32C162.857 82.8453 162.558 80.6693 161.961 78.792C161.449 76.8293 160.51 74.6533 159.145 72.264C157.182 78.152 155.433 83.8267 153.897 89.288C152.361 94.7493 151.166 99.6987 150.313 104.136C149.46 108.659 149.033 112.413 149.033 115.4C149.033 119.069 149.716 120.904 151.081 120.904ZM169.129 46.152C174.334 41.288 178.772 36.552 182.441 31.944C186.11 27.336 188.884 23.2827 190.761 19.784C192.724 16.2 193.705 13.6827 193.705 12.232C193.705 11.5493 193.364 11.208 192.681 11.208C190.633 11.208 188.286 12.7867 185.641 15.944C182.996 19.016 180.265 23.1973 177.449 28.488C174.633 33.7787 171.86 39.6667 169.129 46.152Z" fill="white"/>
</svg>
