<svg width="400" height="400" viewBox="0 0 400 400" fill="none" xmlns="http://www.w3.org/2000/svg">
<rect width="400" height="400" rx="35" fill="white"/>
<path d="M176.16 329.84C164.853 328.987 157.387 326.213 153.76 321.52C150.347 316.827 148.64 310.96 148.64 303.92C148.64 296.027 150.027 286.533 152.8 275.44C155.573 264.347 159.2 252.507 163.68 239.92C168.16 227.333 173.067 214.853 178.4 202.48C176.053 202.693 172.32 203.013 167.2 203.44C162.293 203.867 157.173 204.4 151.84 205.04C146.72 205.467 142.56 206 139.36 206.64C140 200.027 142.453 194.907 146.72 191.28C151.2 187.44 156.853 184.667 163.68 182.96C170.72 181.253 178.293 180.293 186.4 180.08C191.947 164.72 197.6 149.787 203.36 135.28C209.333 120.56 215.307 107.12 221.28 94.96C220 94.7467 218.507 94.64 216.8 94.64C215.093 94.4267 212.747 94.32 209.76 94.32C196.747 94.32 186.613 95.7067 179.36 98.48C172.32 101.253 167.413 105.2 164.64 110.32C162.08 115.44 160.8 121.733 160.8 129.2C160.8 134.533 161.333 139.44 162.4 143.92C163.467 148.187 165.067 152.88 167.2 158C157.173 156.293 150.027 153.093 145.76 148.4C141.493 143.493 139.36 137.413 139.36 130.16C139.36 119.067 143.413 109.253 151.52 100.72C159.84 92.1867 170.933 85.4667 184.8 80.56C198.88 75.6533 214.667 73.2 232.16 73.2C243.467 73.2 254.773 73.9467 266.08 75.44C277.387 76.9333 287.947 77.68 297.76 77.68C303.093 77.68 308.213 77.36 313.12 76.72C318.027 75.8667 323.68 74.5867 330.08 72.88C319.84 84.1867 311.413 91.76 304.8 95.6C298.4 99.44 292.107 101.36 285.92 101.36C280.8 101.36 274.187 100.72 266.08 99.44C257.973 97.9467 249.227 96.88 239.84 96.24C237.067 103.067 234.08 110.96 230.88 119.92C227.68 128.88 224.373 138.48 220.96 148.72C217.76 158.96 214.453 169.52 211.04 180.4C222.133 181.253 232.16 182.213 241.12 183.28C250.08 184.347 260 185.093 270.88 185.52C268.32 188.933 265.653 191.707 262.88 193.84C260.32 195.76 256.8 197.147 252.32 198C248.053 198.853 242.08 199.493 234.4 199.92C226.933 200.347 217.12 200.667 204.96 200.88C203.253 207.28 201.44 213.787 199.52 220.4C197.6 227.013 195.893 232.667 194.4 237.36C193.12 242.053 192.267 244.933 191.84 246C185.867 266.48 181.707 283.227 179.36 296.24C177.227 309.04 176.16 320.24 176.16 329.84Z" fill="#414141"/>
</svg>
